<?xml version="1.0" encoding="iso-8859-1"?>
<!-- Generator: Adobe Illustrator 19.0.0, SVG Export Plug-In . SVG Version: 6.00 Build 0)  -->
<svg version="1.1" id="Layer_1" xmlns="http://www.w3.org/2000/svg" xmlns:xlink="http://www.w3.org/1999/xlink" x="0px" y="0px"
	 viewBox="0 0 511.997 511.997" style="enable-background:new 0 0 511.997 511.997;" xml:space="preserve">
<g>
	<path style="fill:#FEE187;" d="M197.859,96.901c0-15.533,6.049-30.137,17.033-41.121l41.12-41.12l41.12,41.12
		c22.674,22.674,22.674,59.567,0,82.241l-41.12,41.121l-41.12-41.121C203.908,127.038,197.859,112.435,197.859,96.901z"/>
	<path style="fill:#FEE187;" d="M314.106,144.403h58.154v58.154c0,32.066-26.087,58.154-58.154,58.154h-58.153v-58.154
		C255.952,170.493,282.04,144.403,314.106,144.403z"/>
	<path style="fill:#FEE187;" d="M197.89,436.627c-32.066,0-58.153-26.088-58.153-58.154v-58.154h58.153
		c32.066,0,58.154,26.088,58.154,58.154v58.154H197.89z"/>
</g>
<path style="fill:#FFC61B;" d="M314.106,275.372c40.149,0,72.814-32.664,72.814-72.814v-58.154c0-8.096-6.565-14.659-14.659-14.659
	h-51.277c13.78-27.311,9.297-61.549-13.482-84.33l-41.12-41.12C263.629,1.545,259.901,0,256.013,0
	c-3.888,0-7.616,1.545-10.366,4.294l-41.121,41.12C190.774,59.166,183.2,77.45,183.2,96.901c0,11.604,2.716,22.784,7.811,32.843
	h-51.273c-8.095,0-14.659,6.563-14.659,14.659v58.154c0,40.149,32.663,72.814,72.812,72.814c8.095,0,14.659-6.563,14.659-14.659
	c0-8.096-6.565-14.659-14.659-14.659c-23.981,0-43.493-19.512-43.493-43.495v-43.495h43.493c9.677,0,18.623,3.18,25.856,8.545
	l9.093,9.093c5.03,6.78,8.13,15.07,8.5,24.052c-0.015,0.603-0.045,1.199-0.045,1.805v58.154c0,0.306,0.028,0.605,0.045,0.907v58.459
	c-12.137-9.054-27.177-14.422-43.449-14.422h-58.153c-8.095,0-14.659,6.563-14.659,14.659v58.154
	c0,40.149,32.663,72.814,72.812,72.814h43.449v46.054c0,8.096,6.565,14.659,14.659,14.659c8.095,0,14.659-6.563,14.659-14.659
	v-59.806c0.019-0.302,0.045-0.601,0.045-0.907V378.47c0-0.605-0.031-1.204-0.045-1.805c0.95-23.149,20.07-41.69,43.448-41.69H357.6
	v43.495c0,23.983-19.512,43.495-43.495,43.495c-8.095,0-14.659,6.563-14.659,14.659s6.565,14.659,14.659,14.659
	c40.149,0,72.814-32.664,72.814-72.814v-58.154c0-8.096-6.565-14.659-14.659-14.659h-58.154c-16.271,0-31.311,5.367-43.448,14.421
	V275.37h43.448V275.372z M357.599,202.559c0,23.983-19.512,43.495-43.495,43.495h-43.401v-43.495c0-0.605-0.031-1.204-0.045-1.805
	c0.366-8.941,3.443-17.194,8.431-23.957l9.256-9.256c7.215-5.323,16.125-8.478,25.76-8.478h43.495V202.559z M225.258,66.147
	l30.754-30.754l30.754,30.754c16.958,16.958,16.958,44.552,0,61.51l-17.951,17.951c-4.313,3.436-8.225,7.35-11.663,11.663
	l-1.141,1.142l-1.278-1.278c-3.375-4.215-7.207-8.047-11.421-11.421l-18.056-18.058c-8.215-8.214-12.738-19.136-12.738-30.754
	S217.042,74.36,225.258,66.147z M154.397,378.473v-43.495h43.493c23.377,0,42.498,18.541,43.449,41.69
	c-0.015,0.603-0.045,1.199-0.045,1.805v43.495h-43.402C173.908,421.967,154.397,402.456,154.397,378.473z"/>
<g>
</g>
<g>
</g>
<g>
</g>
<g>
</g>
<g>
</g>
<g>
</g>
<g>
</g>
<g>
</g>
<g>
</g>
<g>
</g>
<g>
</g>
<g>
</g>
<g>
</g>
<g>
</g>
<g>
</g>
</svg>
