<?xml version="1.0" encoding="iso-8859-1"?>
<!-- Generator: Adobe Illustrator 19.0.0, SVG Export Plug-In . SVG Version: 6.00 Build 0)  -->
<svg version="1.1" id="Layer_1" xmlns="http://www.w3.org/2000/svg" xmlns:xlink="http://www.w3.org/1999/xlink" x="0px" y="0px"
	 viewBox="0 0 512.001 512.001" style="enable-background:new 0 0 512.001 512.001;" xml:space="preserve">
<g>
	<path style="fill:#B27214;" d="M256.006,512.001c-5.061,0-9.163-4.103-9.163-9.163V343.733c0-5.061,4.103-9.163,9.163-9.163
		c5.061,0,9.163,4.103,9.163,9.163v159.104C265.17,507.898,261.067,512.001,256.006,512.001z"/>
	<polygon style="fill:#B27214;" points="307.323,373.057 256.006,400.519 209.577,373.057 209.577,109.145 307.323,109.145 	"/>
</g>
<g>
	<path style="fill:#E09B2D;" d="M225.082,325.866c19.109,19.109,30.924,45.5,30.924,74.653
		c-58.317,0-105.588-47.271-105.588-105.577C179.57,294.942,205.973,306.757,225.082,325.866z"/>
	<path style="fill:#E09B2D;" d="M225.082,252.414c19.109,19.109,30.924,45.5,30.924,74.653
		c-58.317,0-105.588-47.271-105.588-105.577C179.57,221.49,205.973,233.306,225.082,252.414z"/>
</g>
<path style="fill:#F7B239;" d="M292.27,90.012c-0.415,22.005-6.659,43.913-18.718,63.229c-4.9,7.832-10.752,15.224-17.545,22.029
	c-5.412-5.412-10.214-11.192-14.405-17.265c-1.099-1.564-2.151-3.153-3.153-4.766c-12.499-20.013-18.742-42.812-18.742-65.611
	c0-31.719,12.096-63.424,36.3-87.628C280.809,24.804,292.892,57.512,292.27,90.012z"/>
<g>
	<path style="fill:#E09B2D;" d="M225.082,178.964c19.109,19.109,30.924,45.5,30.924,74.653
		c-58.317,0-105.588-47.271-105.588-105.577C179.57,148.04,205.973,159.855,225.082,178.964z"/>
	<path style="fill:#E09B2D;" d="M239.378,124.894c10.519,16.421,16.628,35.946,16.628,56.9
		c-58.317,0-105.588-47.271-105.588-105.577c29.153,0,55.555,11.815,74.664,30.924C230.459,112.518,235.26,118.468,239.378,124.894z
		"/>
</g>
<g>
	<path style="fill:#F7B239;" d="M361.583,294.942c0,58.304-47.271,105.577-105.577,105.577c0-29.153,11.815-55.544,30.924-74.653
		C306.028,306.757,332.419,294.942,361.583,294.942z"/>
	<path style="fill:#F7B239;" d="M361.583,221.49c0,58.304-47.271,105.577-105.577,105.577c0-29.153,11.815-55.544,30.924-74.653
		C306.028,233.306,332.419,221.49,361.583,221.49z"/>
	<path style="fill:#F7B239;" d="M361.583,148.04c0,58.304-47.271,105.577-105.577,105.577c0-29.153,11.815-55.544,30.924-74.653
		C306.028,159.855,332.419,148.04,361.583,148.04z"/>
</g>
<path style="fill:#E09B2D;" d="M292.27,90.012c-0.415,22.005-6.659,43.913-18.718,63.229c-4.9,7.832-10.752,15.224-17.545,22.029
	c-5.412-5.412-10.214-11.192-14.405-17.265c2.736-11.937,7.514-23.104,13.929-33.111c4.118-6.427,8.919-12.378,14.295-17.753
	C276.484,100.483,284.023,94.703,292.27,90.012z"/>
<path style="fill:#F7B239;" d="M361.583,76.218c0,58.304-47.271,105.577-105.577,105.577c0-20.954,6.109-40.479,16.628-56.9
	c4.118-6.427,8.919-12.376,14.295-17.753C306.028,88.032,332.419,76.218,361.583,76.218z"/>
<g>
</g>
<g>
</g>
<g>
</g>
<g>
</g>
<g>
</g>
<g>
</g>
<g>
</g>
<g>
</g>
<g>
</g>
<g>
</g>
<g>
</g>
<g>
</g>
<g>
</g>
<g>
</g>
<g>
</g>
</svg>
