<?xml version="1.0" encoding="iso-8859-1"?>
<!-- Generator: Adobe Illustrator 19.0.0, SVG Export Plug-In . SVG Version: 6.00 Build 0)  -->
<svg version="1.1" id="Layer_1" xmlns="http://www.w3.org/2000/svg" xmlns:xlink="http://www.w3.org/1999/xlink" x="0px" y="0px"
	 viewBox="0 0 512.001 512.001" style="enable-background:new 0 0 512.001 512.001;" xml:space="preserve">
<g>
	<g>
		<path d="M506.375,164.948c-3.234-2.916-22.116-19.555-45.162-32.219c5.021-3.443,9.657-7.233,13.72-11.295
			c27.564-27.564,31.614-91.294,31.985-98.471c0.518-10.032-7.74-18.396-17.889-17.888c-7.176,0.371-70.906,4.42-98.471,31.984
			c-4.077,4.077-7.863,8.707-11.307,13.693c-12.662-23.03-29.286-41.897-32.201-45.129c-6.765-7.504-18.543-7.491-25.297,0
			c-3.864,4.284-31.808,36.021-42.685,68.539c-0.087-0.098-0.193-0.216-0.263-0.294c-6.765-7.503-18.543-7.492-25.298,0
			c-3.863,4.284-31.807,36.02-42.684,68.539c-0.086-0.096-0.192-0.215-0.262-0.294c-6.766-7.504-18.543-7.491-25.298,0
			c-3.863,4.284-31.807,36.02-42.684,68.539c-0.086-0.096-0.192-0.215-0.262-0.294c-6.766-7.504-18.543-7.491-25.298,0
			c-4.812,5.337-47.013,53.265-47.013,92.246c0,29.383,15.078,63.577,35.938,79.373L4.993,482.926
			c-6.651,6.651-6.651,17.435,0,24.086c3.326,3.326,7.685,4.989,12.042,4.989s8.718-1.662,12.043-4.989l100.948-100.948
			c15.8,20.856,49.989,35.93,79.367,35.93c38.981,0,86.909-42.201,92.246-47.013c7.504-6.766,7.49-18.543,0-25.298
			c-0.078-0.072-0.196-0.176-0.294-0.262c32.518-10.878,64.255-38.822,68.539-42.685c7.504-6.766,7.49-18.543,0-25.298
			c-0.078-0.07-0.196-0.176-0.294-0.263c32.518-10.876,64.254-38.821,68.538-42.684c7.504-6.766,7.491-18.543,0-25.298
			c-0.078-0.07-0.196-0.176-0.294-0.262c32.518-10.876,64.255-38.821,68.539-42.684C513.878,183.48,513.866,171.703,506.375,164.948
			z M414.644,61.145c10.273-10.273,35.036-16.792,56.154-19.953c-3.161,21.122-9.68,45.882-19.952,56.156
			c-9.7,9.7-23.333,16.245-35.262,19.284c1.164-5.456-0.362-11.37-4.601-15.609c-4.248-4.248-10.178-5.77-15.644-4.592
			C398.595,83.631,405.618,70.17,414.644,61.145z M334.412,44.035c12.694,17.14,25.586,39.243,25.586,53.834
			c0,26.506-17.965,51.658-25.599,54.09c-8.129-2.591-25.599-28.073-25.599-54.09C308.802,83.335,321.712,61.206,334.412,44.035z
			 M266.167,112.28c9.694,13.089,25.586,37.573,25.586,53.834c0,26.705-18.047,51.683-25.599,54.089
			c-8.118-2.588-25.599-28.055-25.599-54.089C240.556,151.58,253.466,129.451,266.167,112.28z M197.923,180.524
			c9.7,13.098,25.586,37.576,25.586,53.834c0,26.61-18.012,51.671-25.599,54.089c-8.118-2.588-25.599-28.055-25.599-54.089
			C172.312,219.826,185.222,197.696,197.923,180.524z M129.666,356.692c-8.118-2.588-25.599-28.055-25.599-54.089
			c0-14.533,12.91-36.662,25.611-53.834c9.7,13.098,25.586,37.576,25.586,53.834C155.264,329.269,137.232,354.279,129.666,356.692z
			 M209.394,407.931c-25.987,0-51.497-17.465-54.09-25.599c2.543-7.986,27.939-25.599,54.09-25.599
			c16.193,0,40.669,15.874,53.834,25.611C246.087,395.039,223.986,407.931,209.394,407.931z M277.639,339.686
			c-25.987,0-51.497-17.465-54.09-25.599c2.426-7.609,27.245-25.599,54.09-25.599c16.193,0,40.665,15.872,53.816,25.599
			C314.284,326.787,292.166,339.686,277.639,339.686z M345.884,271.441c-25.987,0-51.499-17.467-54.089-25.599
			c2.421-7.598,27.487-25.599,54.089-25.599c16.194,0,40.666,15.87,53.834,25.611C382.577,258.549,360.474,271.441,345.884,271.441z
			 M414.128,203.196c-25.987,0-51.498-17.464-54.089-25.599c2.404-7.548,27.247-25.599,54.089-25.599
			c14.534,0,36.664,12.91,53.834,25.611C450.822,190.304,428.719,203.196,414.128,203.196z"/>
	</g>
</g>
<g>
</g>
<g>
</g>
<g>
</g>
<g>
</g>
<g>
</g>
<g>
</g>
<g>
</g>
<g>
</g>
<g>
</g>
<g>
</g>
<g>
</g>
<g>
</g>
<g>
</g>
<g>
</g>
<g>
</g>
</svg>
