<?xml version="1.0" encoding="iso-8859-1"?>
<!-- Generator: Adobe Illustrator 18.0.0, SVG Export Plug-In . SVG Version: 6.00 Build 0)  -->
<!DOCTYPE svg PUBLIC "-//W3C//DTD SVG 1.1//EN" "http://www.w3.org/Graphics/SVG/1.1/DTD/svg11.dtd">
<svg version="1.1" id="Capa_1" xmlns="http://www.w3.org/2000/svg" xmlns:xlink="http://www.w3.org/1999/xlink" x="0px" y="0px"
	 viewBox="0 0 131.862 131.862" style="enable-background:new 0 0 131.862 131.862;" xml:space="preserve">
<g>
	
		<line style="fill:none;stroke:#E1A71D;stroke-width:1.5;stroke-linecap:round;stroke-miterlimit:10;" x1="66.19" y1="24.186" x2="66.19" y2="131.112"/>
	<path style="fill:#F7CE18;" d="M76.227,121.229c-2.731,3.295-9.991,4.44-9.991,4.44c-1.066-1.7-0.101-5.948,2-9.678
		c2.95-5.237,21.87-14.324,18.847-11.315C80.263,111.466,78.958,117.934,76.227,121.229z"/>
	<path style="fill:#F2B21F;" d="M76.227,106.256c-2.731,3.295-9.991,4.44-9.991,4.44c-1.066-1.7-0.101-5.948,2-9.678
		c2.95-5.237,21.87-14.324,18.847-11.315C80.263,96.493,78.958,102.961,76.227,106.256z"/>
	<path style="fill:#F7CE18;" d="M76.227,91.282c-2.731,3.295-9.991,4.441-9.991,4.441c-1.066-1.7-0.101-5.949,2-9.678
		c2.95-5.237,21.87-14.325,18.847-11.315C80.263,81.521,78.958,87.988,76.227,91.282z"/>
	<path style="fill:#F2B21F;" d="M76.227,76.31c-2.731,3.295-9.991,4.44-9.991,4.44c-1.066-1.699-0.101-5.948,2-9.677
		c2.95-5.237,21.87-14.325,18.847-11.316C80.263,66.548,78.958,73.015,76.227,76.31z"/>
	<path style="fill:#F7CE18;" d="M76.227,61.337c-2.731,3.295-9.991,4.441-9.991,4.441c-1.066-1.7-0.101-5.949,2-9.678
		c2.95-5.237,21.87-14.325,18.847-11.315C80.263,51.575,78.958,58.042,76.227,61.337z"/>
	<path style="fill:#F2B21F;" d="M76.227,46.364c-2.731,3.295-9.991,4.441-9.991,4.441c-1.066-1.7-0.101-5.948,2-9.677
		c2.95-5.237,21.87-14.325,18.847-11.315C80.263,36.602,78.958,43.07,76.227,46.364z"/>
	<path style="fill:#F2B21F;" d="M72.034,20.379c-0.233,4.273-5.383,9.517-5.383,9.517c-1.869-0.731-3.623-4.719-4.156-8.966
		C61.748,14.966,71.537-3.6,70.9,0.617C69.464,10.133,72.267,16.106,72.034,20.379z"/>
	<path style="fill:#F2B21F;" d="M57.492,118.31c2.811,3.228,7.116,2.774,7.116,2.774c2.422-2.11,2.107-6.437-0.704-9.664
		c-2.811-3.227-22.212-13.787-19.117-10.853C51.769,107.19,54.681,115.082,57.492,118.31z"/>
	<path style="fill:#F7CE18;" d="M57.492,102.228c2.811,3.228,7.116,2.773,7.116,2.773c2.422-2.109,2.107-6.436-0.704-9.663
		c-2.811-3.228-22.212-13.787-19.117-10.853C51.769,91.107,54.681,99,57.492,102.228z"/>
	<path style="fill:#F2B21F;" d="M57.492,86.146c2.811,3.228,7.116,2.773,7.116,2.773c2.422-2.109,2.107-6.436-0.704-9.663
		c-2.811-3.228-22.212-13.788-19.117-10.854C51.769,75.025,54.681,82.918,57.492,86.146z"/>
	<path style="fill:#F7CE18;" d="M57.492,70.063c2.811,3.228,7.116,2.774,7.116,2.774c2.422-2.109,2.107-6.436-0.704-9.664
		c-2.811-3.228-22.212-13.788-19.117-10.853C51.769,58.943,54.681,66.836,57.492,70.063z"/>
	<path style="fill:#F2B21F;" d="M57.492,53.981c2.811,3.227,7.116,2.774,7.116,2.774c2.422-2.11,2.107-6.436-0.704-9.664
		c-2.811-3.227-22.212-13.787-19.117-10.853C51.769,42.86,54.681,50.754,57.492,53.981z"/>
	<path style="fill:#F7CE18;" d="M57.492,37.899c2.811,3.227,7.116,2.773,7.116,2.773c2.422-2.109,2.107-6.436-0.704-9.663
		c-2.811-3.228-22.212-13.788-19.117-10.853C51.769,26.778,54.681,34.671,57.492,37.899z"/>
</g>
<g>
</g>
<g>
</g>
<g>
</g>
<g>
</g>
<g>
</g>
<g>
</g>
<g>
</g>
<g>
</g>
<g>
</g>
<g>
</g>
<g>
</g>
<g>
</g>
<g>
</g>
<g>
</g>
<g>
</g>
</svg>
